<svg xmlns="http://www.w3.org/2000/svg" viewBox="0 0 508.8 864.62"><defs><style>.cls-1{fill:#ffb855;}.cls-2{fill:#fff;}.cls-3{fill:#ffafb0;}</style></defs><g id="Layer_2" data-name="Layer 2"><g id="Layer_1-2" data-name="Layer 1"><g id="Artboard11"><g id="Layer2"><path class="cls-1" d="M285.62,51.72c-5.94-5.3,3.88-10.07,8.3-12.12,6.79-2.54,13.09-7.69,20.78-7.07a1.58,1.58,0,1,1-1.45,2.71c-6.5,1.38-11.68,5.69-17.67,8.07-2.59,1.47-5.33,2.62-7.17,4.8a.22.22,0,0,1,0,.08C291.93,50.24,288.68,53.66,285.62,51.72Z"/><path class="cls-1" d="M288.55,49.27c-2.83-1.2,1.4-3.68,2.51-4.67C297.9,39,306.48,35.94,314.84,33c2.92-1.06,4.3,2.62,1.55,3.81-8.78,3.82-18.18,6.57-26.23,11.71A1.47,1.47,0,0,1,288.55,49.27Z"/><path class="cls-1" d="M313.62,34.33a2.15,2.15,0,0,1-1-.41A15.17,15.17,0,0,1,311,32.47c-3.83-.94-6.91-3.35-9.67-5.89-4.43-3.44-9.24-7.84-8.87-13.73-1.38-2.09,1.21-4.37,3.39-3.34,3.92-.64,7.6,2.21,10.95,3.81,6.24,2.88,9.53,9.94,10.36,16,.18.92.34,1.94.47,2.84C318.1,34.23,315.29,35.76,313.62,34.33Z"/><path class="cls-1" d="M319.42,31.62c-3.08-.26-2.35-3.26-.82-4.86,2.09-4.65,3.87-9.66,8.07-13.16,2.88-2.63,7.2-4.54,11.23-4.18,1.85.15,3.46,2.06,2.1,3.65-1,5.15-6,8.47-9.23,12.33-2.34,2-5.56,8-9.22,5.46A3.86,3.86,0,0,1,319.42,31.62Z"/><path class="cls-1" d="M412.54,235.62a2,2,0,0,1,.39,2.54,80.75,80.75,0,0,1-21.61,14.37c-3.33,1.62-7.1,3.81-10.93,3.94,0,.69,0,1.37-.08,2a2.84,2.84,0,0,0-.63,1.1c-.24,1.28-.85,3.52.09,4.62a83.65,83.65,0,0,0-.89,12c-.95,10.26,1.17,21-1.73,31-1.94,4.32-6.07,5.35-10.42,6.56a193,193,0,0,1-43.63,7.67c-6.76.11-13.17-1.95-19.84-2.49-4.87-1.11-9.34-3.52-13.6-5.83a2.65,2.65,0,0,1-1.08-1.86,113.45,113.45,0,0,0-3.78-20.95c-1.54-4.84-5.36-8.48-7.11-13.26a102.67,102.67,0,0,1-5.94-17.19,53.67,53.67,0,0,1-1.79,8.36c-.53,2.19-1.12,5.26-4,5.36-4.63,1.6-9.67,1.31-14.52,1.09-8.82-2.56-18.49-4.3-25.41-10.55-2.27-2.13-6.16-4.57-4.93-8.06a45,45,0,0,1,3.7-4.72,16.76,16.76,0,0,0,1.62-3.89c.21-.66.39-1.32.59-2a21.77,21.77,0,0,1,1.06-2.9c4.61-15.25,7.25-31.81,16-45.49,4.5-5.21,10.69-8.09,17.37-10,.71-.2,1.41-.4,2.13-.58l1.68-.41.22,0c2-.52,4.38-1,6.85-1.37h0c2.65-.47,5.27-.91,7.8-1.39a1.12,1.12,0,0,1,1,.31,46.22,46.22,0,0,1,6.55-.34c4.39-.08,8.52-1.64,12.3-3.48a1.44,1.44,0,0,1,.53.09l.06,0a.83.83,0,0,1,.82.72,31.05,31.05,0,0,0,2.44,2.93,46.12,46.12,0,0,0,2.94,3.66c2.77,4.07,8,6,12.82,7.1a24,24,0,0,0,5.51-.44h.12l.07,0a18.56,18.56,0,0,0,7.8-3.4,10.79,10.79,0,0,0,2.05-3.63,6.65,6.65,0,0,1,.71-.69,2.81,2.81,0,0,1,2-.88l.23-.11c5.88-.36,11.73,3.86,17.8,3.84a1.9,1.9,0,0,1,.76-3c2.54-.45,5.13,1,7.61,1.31,5.46.84,10.89,2.29,16.36,2.79a2.18,2.18,0,0,1,1,.57c6.95,1.08,11.38,7,13.76,12.94,2,5.72,5.21,11,7.17,16.67,1.67,4.8,4,9.26,8.16,12.57A29.05,29.05,0,0,1,412.54,235.62Z"/><path class="cls-1" d="M506.89,158.23c1.27,1.1.88,2.62-.11,3.74-.68.8-1.28,2.68-2.2,3.7-1.29,3.27-3,6.38-4.58,9.56-4.05,6.4-6.49,14-12,19.22a3.19,3.19,0,0,1-3.71-.25c-.1-.2-.22-.4-.34-.6a7.27,7.27,0,0,1-.61-.71,1.24,1.24,0,0,0,.18-.65c0-2.44-1.56-5.29-4.12-6.12-6-.67-13.89.56-17.05,6-.82,2.11-1.67,4.14-2.6,6.19-.45,2.72-.88,5.49-1.11,8.26a27.58,27.58,0,0,0,.15,3,0,0,0,0,1,0,0c-.18,2.38-.2,4.8-.35,7.19a15,15,0,0,0,1.35,6,15.65,15.65,0,0,1-.5,2.21,2.89,2.89,0,0,1-2.69.83h0c-7.3-.34-12.11-6.48-18.65-8.89-1.61-1.27-4.06-1.76-5-3.68-.57-2.34.26-5,1.11-7.22,2.1-6,3.72-11.92,5.52-18,2.82-5.81,5.32-11.79,8.58-17.42a135.47,135.47,0,0,1,13.22-24,20.81,20.81,0,0,1,5.25-5A24.73,24.73,0,0,1,473.3,137a1.21,1.21,0,0,1,1.78.1c1.41-.61,3.33-.46,5-.38A7.18,7.18,0,0,1,484,139a26.28,26.28,0,0,1,5.46,4.18c2,2.72,5.34,4.42,7.65,6.78C499.8,153.32,504.77,154.5,506.89,158.23Z"/><path class="cls-2" d="M450.78,783.93c7.3,2.15,9,8,5.57,14.2-4.62,9.06-16.72,7.74-25.53,9.34a197.88,197.88,0,0,1-48.08,4.18c-11.54.05-23-.78-34.53-1.4-3.33-.55-6.34-2.28-9.75-2.55-2.79-.6-6.07-1.46-7.78-3.78a11.37,11.37,0,0,1-.35-12.37l.29-.41h0c.63-3.57,1.77-7.33,1.86-9,1.35-6.42,2.53-12.69,4.41-18.88,1.83-8.19,2-16.58,2.67-24.9.25-4.83,1.11-9.68.8-14.52-.31-8.84,1.81-17.66,1-26.44a1.31,1.31,0,0,1-1-2.3c.79-.51,1.85-.15,2.71,0,6.18,3,13.26,1.79,19.94,2.4,4.8.17,9.62.23,14.43.21,2.12.09,4.41,0,6.09-1.37a1.79,1.79,0,0,1,2.72,2.31,110.11,110.11,0,0,0-2.83,19.25c-.47,11.3-2.89,22.39-3.63,33.66a10.81,10.81,0,0,0-.35,1.87,7.17,7.17,0,0,0,.74,1.79c2.72,2.78,6.26,4.25,9.82,5.68A103,103,0,0,0,409.54,770c4.89,2.1,10.15,3,15.16,4.67,3.55,2,7.54,2.51,11.35,3.79a24.69,24.69,0,0,1,6.61,2.72C445.32,782.2,448.14,782.85,450.78,783.93Z"/><path class="cls-2" d="M327.58,818.58c.07,5.5-6.61,7.57-11.24,8.53s-9.46,2.73-14.29,1.61c-13.45-1.52-27.5-1.33-41.07-2.4a60.75,60.75,0,0,1-17.65-2.91,32.48,32.48,0,0,1-11.86-4.83,2,2,0,0,1-2.94-1q.08-.63.18-1.26a1.26,1.26,0,0,1,.33-2c.58-3.17,1.4-6.35,2.16-9.48,1.48-3.35,3.06-6.26,4.22-9.67C242.2,774.69,248.74,754,253.6,733a270.27,270.27,0,0,1,8.76-32.35,4,4,0,0,1-1.13-1.85c-.11-1.21,1.31-1.59,2.19-1.13a1.43,1.43,0,0,1,1.72-.63,1,1,0,0,1,.37,1.65c4.7.54,9.33,1.74,13.95,2.52,3.18-.61,6.77.31,5.4,4.08C278.4,721,274.38,737.53,271.2,754c-.55,5.07,2,9.77,3.54,14.29a35,35,0,0,0,12.76,16.93c10.43,5.67,18.47,14.24,28,20.94,3.71,3.41,10.65,4.71,11.25,10.31A3.12,3.12,0,0,1,327.58,818.58Z"/><path class="cls-2" d="M212.54,415.64c0-.52-.07-1.05-.07-1.58a1.51,1.51,0,0,1-.28.22A2.49,2.49,0,0,0,212.54,415.64ZM264.73,276.5c3.47.56-1.37,11.91-1.36,14.52-2.84,11.81-2.86,23.8-5,35.65-1.13,9.92-2.43,19.83-5,29.5a41,41,0,0,0-2.52,12.9c-.11,4.58-1.11,9.19,0,13.74,2,7.93,6.49,15.47,6.95,23.69.73,3.68-.43,12.27-6.13,8.1-3.62-3.13-4.49-8-6.4-12a22.15,22.15,0,0,0-3.86,1.29v0c-3.16,2.86-4.46,7.24-4.92,11.25-.17,1.2-.36,2.43-.54,3.66a16,16,0,0,0,1.46-2.15,11.53,11.53,0,0,0,1-1.44,1.15,1.15,0,0,1,.15-.76l0,0a4.27,4.27,0,0,1,1.46-1.11,2.47,2.47,0,0,1,.92-.41,1.64,1.64,0,0,1,.32.05c3-.38,6.54,2.56,8,5,5.06,4.16,4.41,11.17,4.8,16.95.62,15.48-5.66,30.11-8.5,45.17-2.55,15.58-7.26,30.49-11.68,45.62-1.26,2.88-2.53,13.06-5.58,16.41,0,0,0,0,0,0-1.15,1.79-3.89,1.93-5.85,1.44-11.19-2-7.3-7.29-4.85-14.85,3.64-13.5,6.4-27.19,10.83-40.52,2.14-8.88,4.13-17.87,7.73-26.35a52.4,52.4,0,0,0,5.11-19.68c.42-4.95.47-10.06-1.84-14.61a5.94,5.94,0,0,0-2.18-3.14,10,10,0,0,1-1.87-1,22.62,22.62,0,0,0,0,3.95c1.71,5,.47,7.62-5.51,7.09a26.32,26.32,0,0,0-3.86-.64c-5.29-1.74-9.56-6.38-12.08-11-.17-.51-.33-1-.47-1.54a6.21,6.21,0,0,1-1.25,1.43c-1.57,2.81-4,4.75-5.57,7.47-3.09,5.25-5.36,11-9,15.95-5.6,10.46-9.61,21.55-14.26,32.41-6.51,14.32-9.88,29.8-15.73,44.36-.89,2.23-1.25,5.24-3.81,6.29-2.46.17-5.11.57-7.48-.24-2.22-.82-2.12-3.57-.92-5.16a60.09,60.09,0,0,1,2.89-9c3.18-10.56,5.83-21.28,11.27-31.08,5.55-13.3,9.81-27.1,17.48-39.5,4.78-11,11.28-21.78,20.75-29.81.33-1.11,2.24-1.85,3.33-2a1.12,1.12,0,0,1,1.29.42,29.87,29.87,0,0,1,1.87-9.82c1.26-3.93,4.56-6.33,6.82-9.53.21-2.5,2.18-5.84,2.37-7.65,2.89-12.49.34-25.63,1.27-38.36a463.18,463.18,0,0,1,3.28-53.05,153.75,153.75,0,0,1,3.2-23.75.8.8,0,0,1,.44-.88,1.61,1.61,0,0,1,1.2-.54,1.47,1.47,0,0,1,1.48,1.31c7.22,2.1,14.33,5.48,21.92,5.69a3.93,3.93,0,0,1,1.84,0,17.56,17.56,0,0,0,2-.18,2.06,2.06,0,0,1,1.41.43C262.65,276.36,263.7,276.41,264.73,276.5Z"/><path class="cls-2" d="M489.75,210.22c.81,8.24-6.13,14.31-11.39,19.95-3.09,3.43-6,7.21-9.57,10.09a.64.64,0,0,1-.18.1,8.7,8.7,0,0,0-1.4,2.46c-1.06,3.76-3.25,7-5.17,10.29-3.42,8.31-5.19,13.31-9.6,21.6-5.57,9.32-13.58,33.73-26.89,32.75-11-1.44-17.29-10.75-23.78-18.28A202,202,0,0,1,381,264.86a1.84,1.84,0,0,1-1.24-.62c-.94-1.1-.33-3.34-.09-4.62a2.82,2.82,0,0,1,.62-1.1,4.38,4.38,0,0,1,.46-.42,1.3,1.3,0,0,1,0-.44,1.54,1.54,0,0,1,2.17-1.09c3.29-1.26,6.84-1.67,10-3.28,4.76-2.91,10.21-5.31,14.53-8.69,1.27-2.11,4-1,4.07,1.23.49,3.15,2.65,5.63,4.37,8.15s2.89,5,4.57,7.31c1.54,1.55,3.62,2.49,5.07,4.16a11,11,0,0,1,1.92,2.32c2.66-2.47,3.06-6.62,5.66-9.28,6.51-10.12,14.09-19.59,21.56-29-.25-2.32,2-3.29,4.11-3.67a4.79,4.79,0,0,0,.48-.75s0,0,0,0a14.52,14.52,0,0,0,.5-2.2c.65-4.37-.55-8.77-1-13.17a0,0,0,0,0,0,0,25.28,25.28,0,0,1-.15-3c.22-2.77.65-5.54,1.1-8.26.94-2.05,1.79-4.08,2.61-6.18,3.15-5.47,11.08-6.7,17-6,2.57.82,4.1,3.67,4.13,6.11a1.27,1.27,0,0,1-.18.66,6,6,0,0,0,.61.7c.11.2.23.4.34.61A47.64,47.64,0,0,1,489.75,210.22Z"/><path class="cls-2" d="M471,163.43c-4.32-.42-8.6-1.82-11.55-5-1.1-.94-2.64-3-.95-4.12,2.5-7,8.7-12.89,15.09-16.89,4.61-1.35,12.88,2.22,14,6.84.17,1.31-.7,2.57-1.33,3.68a23.78,23.78,0,0,1-4.66,7.61C478.74,158.65,475.84,163.43,471,163.43Z"/><path class="cls-2" d="M340.83,213.93c-11.73-.16-23.37-1.49-35.05-2.36-11.28-.73-22.64-1.55-33.53-4.62-7.71-2.06-15.45-4.18-22.67-7.47a.65.65,0,0,1-.36-.85.7.7,0,0,1,.9-.35c9.74,3.93,20.39,6.36,30.6,8.79,17.66,2.65,35.58,3.12,53.42,4.43a191.39,191.39,0,0,0,43-2.94c3.95-.39,6.85-3.44,10.62-4.21a1.41,1.41,0,0,1,1.26,2.1c-5.73,4.87-14,5.18-21.29,6.11A147.83,147.83,0,0,1,340.83,213.93Z"/><path class="cls-2" d="M276.23,191.91a109.43,109.43,0,0,1-13.3-3.82c-2.39.7-1.71-3.07.3-1.63,5.65.9,11.11,2.09,16.84,2.26a1.67,1.67,0,0,1-.24,3.33A24.09,24.09,0,0,1,276.23,191.91Z"/><path class="cls-2" d="M321.23,202.26c-7.45-1.76-15.18-3.09-22.25-6a.9.9,0,0,1-.79-1.09,1,1,0,0,1,1.42-.47c8,1.1,16.1,2.21,24,3.61,7.7.33,15.37-.52,23-.65C356.78,203.31,323.71,203.25,321.23,202.26Z"/><path class="cls-2" d="M367.16,197.28c-1.36,0-2.78-.16-4.12-.12a1.41,1.41,0,0,1-1.86-1.21,1.33,1.33,0,0,1,1.51-1.25c6.09-.26,12.1-2.6,18.24-2.33a1.74,1.74,0,0,1,1.51,1.43C383,197.22,369.9,197,367.16,197.28Z"/><path class="cls-2" d="M267.64,223c-10.12-1.4-19.65-4.23-29.22-7.48a1.44,1.44,0,0,1-1.54-1.75c1-2.21,4,.1,5.79.21,8.12,2.71,16.67,3.42,25,5C270.54,219.32,270.74,223.14,267.64,223Z"/><path class="cls-2" d="M334.7,232.57c-14.83-1-29.67-2.41-44.32-4.76-2.21-.39-4.28-1.54-6.35-2.08-1.22-.51-4.17,0-4.35-1.44a.74.74,0,0,1,.84-.61c1.63.26,3.36.62,4.88,1,10.92,1.26,21.82,1.8,32.7,3.34a158.21,158.21,0,0,0,31.06.57c2.59.2,9.11-2.58,10.1.47C360,233,338,232.6,334.7,232.57Z"/><path class="cls-2" d="M372.52,228.18c-1.71-.4-6.68,1-6.71-1.34.13-.94,1.19-1,2-.85,3.89.46,7.19-1.23,10.77-2.2,6.07-1.06,11.17-3.65,16.78-5.65a2,2,0,0,1,2.33,1.07,1.84,1.84,0,0,1-.82,2.33,56.09,56.09,0,0,1-9.76,4.12,93.18,93.18,0,0,1-14.72,2.5Z"/><path class="cls-2" d="M379.42,241.91a1.85,1.85,0,0,1,1.36-2.27c2.35-.55,4.55-1.24,6.75-2,3.74-.86,5.57-2.6,8.61-4.39,2.71-1.15,5-3.05,7.75-4.05,3.12-.42,2.75,3.11.74,4.31-4.54,2.93-9.95,6-15.2,7.48C386.82,241.31,380.78,245.12,379.42,241.91Z"/><path class="cls-2" d="M270.05,245.17c-8.43-.47-16.29-4.38-23.42-8.38-1.73-1.33-4.28-.66-5.91-2.18s-8.78-4-6.89-6.43a1.56,1.56,0,0,1,2.23.22c3.15,2.31,6.46,4.56,10.54,4.52,4.08,1.84,7.75,4.58,12,6a112.77,112.77,0,0,0,11.9,3.19A1.57,1.57,0,0,1,270.05,245.17Z"/><path class="cls-2" d="M255.16,259.89c-5.87-.73-11.42-3-17.12-4.18a3.32,3.32,0,0,1-1.39-.93c-3.16-2.37-6.29-4.88-9.64-6.94a1.22,1.22,0,0,1-.58-2.06,1.35,1.35,0,0,1,2.22.67c3.16,2.16,6.5,4.09,9.84,6A164.13,164.13,0,0,1,260,256.83c1,.53,2.93,1.08,2.58,2.49C261.4,261.36,257.23,259.81,255.16,259.89Z"/><path class="cls-2" d="M324.43,253.44a231.08,231.08,0,0,1-37.79-4.34,37.05,37.05,0,0,0-5.1-1.75.85.85,0,1,1,.59-1.6,31.13,31.13,0,0,0,8.37,1.69c16,.9,32.08,4.09,48.09,1.8,11.33-1.17,22.43-3.71,33.6-5.73,1.84-.06,4.91-1.54,5.87.55.6,3.35-11.42,3.95-14.1,5C350.91,251.21,337.74,253.69,324.43,253.44Z"/><path class="cls-2" d="M308.61,276.56c-4.35-.77-30.91.1-29.81-5a1.62,1.62,0,0,1,2.2-.7c9.24,3.22,19.51,2,29.15,2.65,19.82-2.41,40.21-3.78,59.79-8.28,1.32-.32,3.94-.64,4,1.18,0,1-1.21,1.44-2,1.72a103.48,103.48,0,0,1-12.78,3.23A334.07,334.07,0,0,1,308.61,276.56Z"/><path class="cls-2" d="M288.55,294.08a1,1,0,1,1,0-2.08,101.15,101.15,0,0,0,18.9-.7c10.32-1.25,20.73-2,31-3.65,9.59-1.85,18.95-5.29,28.66-6.26.79,0,2.11.37,1.24,1.27-7.05,4.45-16,4.74-24,7.16A218.62,218.62,0,0,1,288.55,294.08Z"/><path class="cls-2" d="M312.23,313.37c-5-.57-9.87-1.52-14.77-2.35a1.18,1.18,0,0,1-1-1.29,1.23,1.23,0,0,1,1.37-1c6.93,1.24,13.93,2.42,21,1.56l-.22,0c13.37-1,26-4.12,38.92-7.05,2.54-.73,5.15-1.17,7.74-1.68a1.31,1.31,0,0,1,1.36.73c.65,2.49-5.71,3.47-7.56,4.32C343.77,310.63,328.11,313.84,312.23,313.37Z"/><path class="cls-2" d="M390.62,96.64c1.65-.25,2.84,1.79,1.67,2.93-.11.5-.24,1-.37,1.51a6.84,6.84,0,0,1,0,4.29,2,2,0,0,1-1.35,1.17c-1,3.95-2.14,7.92-3.35,11.68-1.09,3.47-2.7,6.35-3.55,9.77a79.12,79.12,0,0,1-2.55,7.77c-1.34,5.13-5.64,9.64-8.73,13.87-6.5,9.62-17,15.3-29.13,13.81a11.76,11.76,0,0,1-4.28-.95c-3,4-3.72,9.5-3.54,14.19,0,2.25,1,4.47.74,6.72-.33,1.1-.63,2.26-1,3.36a10.79,10.79,0,0,1-2.05,3.63,18.52,18.52,0,0,1-7.79,3.4,1.38,1.38,0,0,1-.2,0,23.93,23.93,0,0,1-5.5.44c-4.8-1.06-10.05-3-12.82-7.1a44,44,0,0,1-2.94-3.66,5.21,5.21,0,0,1-.87-2.82c3.13-7.86,6.56-16,5.55-24.65-.8-4.65-3.89-8.28-5.37-12.71-2-2.59-1.55-6-2.81-8.82-4.29-1.64-9.08-3.37-11.7-7.26-4.05-7.35-4-16.72-2.16-24.69,1-4.37,6.95-8.51,11.37-5.8,1.53,1,2.35,2.7,3.32,4.2a12.09,12.09,0,0,1,3.33,6.43,28.73,28.73,0,0,1,.6,4.64c4.5-8.28,8.63-19.68,19.66-20.64,7.88-1.18,14.86-5,22.8-6,2.44-.63,5.07-.92,7.3-2.11,3.33-2.08,5.6-5.27,8.84-7.44,1.26-2.3,4.64-.26,3.76,2a6,6,0,0,1-1.8,2.29c.78,4.31,5.69,7.34,8.94,10l.09.06c1.09.46,2.2.9,3.31,1.34A1.74,1.74,0,0,1,378,91c1.37-4,9.8,3.68,11.75,6A1.76,1.76,0,0,1,390.62,96.64Z"/><path class="cls-3" d="M330.48,136.83a17.65,17.65,0,0,1-9-4c-1.18-1.31-1.45-3.16-2.1-4.73-.29-5.65,3.69-12.68,10.48-12.11a6.31,6.31,0,0,1,4.88,1.32c3.61,1,5.73,4.23,6.6,7.53C342.81,130.87,337.22,137.7,330.48,136.83Z"/><path class="cls-3" d="M327,137.67c-4.82-2.66-9.22-7.17-9-12.76a12.73,12.73,0,0,1,14.39-9C345.39,120,341,140.39,327,137.67Zm2.58-4.17a5.48,5.48,0,0,0,1.82-.46c.64-.65,2-1.9,2.25-.24,6.48-6.93-.42-18.57-9.27-10.75,1.87,1.5-.43,5.21-.39,7.24a3.83,3.83,0,0,0,.9,1.74C326.22,132.23,327.49,133.7,329.53,133.5Z"/><path class="cls-3" d="M367.3,150.8a12.11,12.11,0,0,1-4.77-5.37c-.88-2.42-.26-5.29.64-7.63,2-2.6,4.82-5.41,8.37-5.81,4.43.14,8.47,3.34,8.31,7.75a3.26,3.26,0,0,1-1.21,2.21c-1.5,2.12-1.28,5.37-4.12,6.67C373.47,151.14,369.71,151.46,367.3,150.8Zm5.74-6.48.07-.15a14.2,14.2,0,0,0,.47-1.39v0l.17-.59A3.4,3.4,0,0,0,373,144.32Z"/><path class="cls-3" d="M370.34,148.18c-2.12-1.82.91-3.79,1.37-5.65.43-1.18,1-2.92,2.67-2.38,2.49,1.15-.08,4-.26,5.88C374.19,148,372.19,149.56,370.34,148.18Z"/><path d="M303.79,122.6a.77.77,0,0,1-1,1,1.53,1.53,0,0,1-.8-1,20.61,20.61,0,0,0-1.74-1.34,4.43,4.43,0,0,0,.18,4c1.16,1.46-1.33,3.08-2.34,1.48-1.86-2.45-2.26-10,2.67-8.39-1-3.4-2.22-7.27-6.23-8.25a1.7,1.7,0,0,1-1.05.37,1.77,1.77,0,0,1-1.51-2.82c2.48-3.32,8.69,1.84,9.51,4.61C302.9,115.51,303.11,119.15,303.79,122.6Z"/><path d="M349,96.73c1.68,1,6.25,3.5,4.51,5.67a1.64,1.64,0,0,1-2.2,0,12.38,12.38,0,0,0-6.19-3.4c-3.14,0-6.93.12-8.52,3.06-1.45,1.78-4.26-.53-2.59-2.15C337.45,96,344.22,94.28,349,96.73Z"/><path d="M344.3,106.71c6.34-1.17,2.87,13.35-2,12.77C338.9,117,340.86,108.55,344.3,106.71Z"/><path d="M383.53,109.16c.37.88,1.42,2.65.1,3.19a.87.87,0,0,1-1.06-.57c-.4-3.35-4.15-4.54-7-3-.63,3.49-4.87-.47-1.11-1.12C377.13,104.37,381.87,105.51,383.53,109.16Z"/><path d="M378.68,117.54c2.92,1.74-.67,12.52-4.48,10.66-2.82-1.73-.55-5.06.31-7.29C374.84,119.07,376.35,116.47,378.68,117.54Z"/><path d="M362.81,128.42c.37,1.5,1.09,3,.52,4.55a4.91,4.91,0,0,1-4.8,2.55,1.16,1.16,0,0,1,.16-2.28c1,0,2.7-.25,2.4-1.49a7.52,7.52,0,0,1-.43-5.45c.29-1,.29-3,1.92-2.66C364.53,124.48,362.53,126.89,362.81,128.42Z"/><path d="M353.47,140.26c1.39-.64,4.92-.89,3.46,1.45a6.74,6.74,0,0,1-6.76.74c-3.43-1.47-3.84-5.35-4.77-8.39-.43-1.3,1.8-1.89,2.14-.56a12.16,12.16,0,0,0,3.13,6.06A2.63,2.63,0,0,0,353.47,140.26Z"/><path d="M468.92,215.78a1.13,1.13,0,0,1-.85,1.24c-3.24.16-2.7-11-4.45-13.38-2.31-4.19-2.5-.53-3.07,1.7-1,6-.67,12.86,2.63,18.18a1.37,1.37,0,0,1-.53,2.68c-7.37-5.2-8.15-17.66-4-25l0-.05h0a3.14,3.14,0,0,1,1.39-1.63,3.42,3.42,0,0,1,1.85-.51,3.08,3.08,0,0,1,.61.06c4.25,1.31,4.91,6.51,5.49,10.12C468.32,211.37,468.69,213.57,468.92,215.78Z"/><path d="M475.85,207.26a1.29,1.29,0,0,1-1,1.41,1.39,1.39,0,0,1-1.59-.74c-1.89-3.43-2.13-7.49-4.57-10.57-1.48-1.22-2.64-3.47-4.71-3.65-1.37,1.37-2.53,3.33-2.09,5.27h0c1.08.56.23,2.23-.91,1.72a1.67,1.67,0,0,1-.94-1.21c-.13-.43-.19-.9-.32-1.29-1.08-4,1.29-7.35,4.43-7.34a4.89,4.89,0,0,1,1.91.42,7.75,7.75,0,0,1,2.54,1.88,17.22,17.22,0,0,1,5.73,8.52A22.82,22.82,0,0,1,475.85,207.26Z"/><path d="M476.56,192c1.81,2,7.48,8.9,4.62,11a1.44,1.44,0,0,1-1.75-.56c-2.29-4.47-5-9.43-10.19-11.18a4.76,4.76,0,0,0-3.12,0,1.34,1.34,0,0,0-.72,1c.46,1-1.34,1.37-1.37.29a3.52,3.52,0,0,1,0-.92,5.92,5.92,0,0,1,.17-.8,3.44,3.44,0,0,1,3.07-2.67,8.91,8.91,0,0,1,3.88.55A14.83,14.83,0,0,1,476.56,192Z"/><path d="M486.58,195c3.37,6.83,5.85,14.23,4.73,21.86-1.4,6.25-6.54,10.94-10.89,15.43-1.52.91-3.61,4.25-5.44,2.68a1.24,1.24,0,0,1,.24-1.77c3.3-2.16,5.55-5.28,7.9-8.29s4.91-6.18,5-10.09a33.58,33.58,0,0,0-6.71-22.2c-1.87-3.36-6.37-4.51-10.23-3.84a10.26,10.26,0,0,0-2.64.8c-.47,1.16-2.26.31-1.69-.74a5.65,5.65,0,0,1,.45-.61c2.33-2.83,6.63-3.47,10.11-2.21C482.1,186.94,484.49,191.26,486.58,195Z"/><path d="M508.06,156.6c1.3,1.31.58,3.25.2,4.79-2.12,6.23-5.69,11.92-8.62,17.82a78.34,78.34,0,0,1-9.3,15.47c-4.57,1.39,2.84-8.67,3.48-9.92,3.62-6.49,7.1-13,10.74-19.51,1-2.21,2.82-4.79,2.33-7.22-1.87-2.35-3.65-3.09-5.86-4.89-2.61-2.77-6.06-4-8.87-6.43-4.19-4.05-9.09-8.54-15.27-9s-10.3,5.25-13,9.83c-1.8,2.42-3.49,4.92-5.1,7.48-.57.9-1.14,1.83-1.69,2.75a199.79,199.79,0,0,0-9.68,18.58c-3.74,7.52-7.69,15.26-10.7,23-1.4,4.52-3.12,9.34-1.64,13.93h0A125.5,125.5,0,0,1,450.71,221c2.68,1.72,5.39,3.81,8.52,4.39a.65.65,0,1,1,0,1.3c-1,0-2,.36-3,.25l-.36,0a9.37,9.37,0,0,1-2.37-.52,22.2,22.2,0,0,1-4.27-2.28c-3.25-2-6.93-3.18-10.32-4.9-7.73-3.58-7.72-3.91-7.14-12.09,1.77-12,8.53-22.68,13.52-33.65,5.27-11.35,11.72-22.35,20.22-31.79,4.65-4.23,7.67-7.75,14.73-6,8.3,1.71,13,9.36,20.14,13.11a38.31,38.31,0,0,1,3.83,3.81,9.27,9.27,0,0,1,3.07,3.13A10.67,10.67,0,0,0,508.06,156.6Z"/><path d="M488.58,143.94c.66.64,0,1.38-.43,1.86a15.07,15.07,0,0,1-2.24,4.08c-2.39,5-5.18,10-9.92,13.24a8.29,8.29,0,0,1-6.65,2.85c-5.28-.51-8.57-4.85-12.24-8.15-.36-.32-.73-.64-1.09-.94-1.53-1.42.85-3.68,2.35-2.22l.43.41c3.62,3.46,7.75,6.61,12.72,8.05,4.12-2.54,6.87-6.51,9.85-10.12,1.81-2.47,4.42-4.59,5.27-7.57C486.67,144.51,487.52,143.07,488.58,143.94Z"/><path d="M471,147.07c3.59,0,4.57,4.69,2.39,6.85A6.92,6.92,0,0,1,469,156C463.45,154.5,465.18,146.34,471,147.07Z"/><path d="M479.87,143.21c.12,2.1-2.38,3.14-4.25,3.14a2.16,2.16,0,0,1-1.2-.56,1.58,1.58,0,0,1-.27-.31c-2.54-1.41-1.29-6.08,1.54-6.46C478.24,138.6,479.79,141.09,479.87,143.21Z"/><path d="M455.07,225.11c1,.25.9,1,.78,1.78,0,.24-.07.49-.08.7-.11,1-.43,2.47-1.81,2.3-1.83-.35-1-2.4-.47-3.52l0-.06A1.23,1.23,0,0,1,455.07,225.11Z"/><path d="M122,858.61c-6.69-6.11-8.23-17.19-1.53-23.69-4.65-1.09-9.31-2.47-14.07-2.81-10.21-1.09-20.14-3.67-30.23-5.46-6.83-1.21-13.61-2.65-20.28-4.42a1.93,1.93,0,0,1,.13,1.25,12.47,12.47,0,0,1-3.23,7.14c-3.81,7.22-13.17,10.52-21.31,9.64-6.94-1.61-13.62-6.68-15.79-13.28-1.15-6.21-.18-13.12,3.57-18.4-9.83-5-18.41-12-19.07-23.28a37.16,37.16,0,0,1,1.08-12.89C1,771,2,769,2.17,767.85,7.26,751.68,12.5,735.59,18.5,719.7c12.25-37.33,25.4-74.61,42.6-110.12a120.8,120.8,0,0,0,8.29-20c5.3-11.15,10.37-22.41,16.82-33a157.13,157.13,0,0,1,15-22.26,31.27,31.27,0,0,1,8.07-5.44c.12-2.31,8.17-3,9.77-3.65,8.36-1.9,16.91-1,25.31.21,2.85.31,5.7.7,8.53,1.15.09-.19.17-.38.27-.57,1.57-4.33,3.34-8.86,5.22-13,3.85-11.26,7.15-22.67,11.85-33.65,7.4-20.25,20.6-56.25,39.81-67.95a1,1,0,0,1,.3-.1,31.67,31.67,0,0,1,7.9-17.9c.86-1.09,2.72-.06,2.14,1.18-4,7.23-8.44,15-6,23.36,1.72,4.5,3.33,9.28,7.86,11.93,1.69,1,14.66,6.05,12.76,1.51-3.55-7.27-.14-14.63,3.12-21.33,1.58-2.72,2.36-7,5.85-8a3.51,3.51,0,0,1,3.54,2c2.23,3.64,2.36,8.37,6.32,10.71,3.27-2.76,2.12-8,1.89-11.68-.34-7-5.72-12.34-6.29-19.2.51-18.49,5.35-36.63,7.8-55,2.1-14.32,3.4-28.72,5.74-43,.44-3.05.83-6.11,1.45-9.13a32.93,32.93,0,0,1-6.72.65,51.2,51.2,0,0,1-26-7.87.71.71,0,0,1,0,.14c-3.34,30.13-6.09,60.42-6.9,90.62-.53,7.39-.5,14.77-.46,22.17-.46,2.39,1.61,11.89-3.14,9.31-2-11.43.2-23.67.51-35.33.24-29.19,4.91-58,8.55-87a.64.64,0,0,1,.52-.54,61.71,61.71,0,0,1-5.49-3.93c-2.69-2-6.43-4.11-6.3-7.74.62-2.2,2.61-3.92,3.54-6,14.13-25,9.8-61.17,45.37-68.62,11.17-2.14,22.75-2.27,33.89-4.38a.9.9,0,0,1,.47.06c0-1.5,1.35-3.47,1.5-4.81,1.83-5.84,5-11.77,4.61-17.91-1.54-6.11-5.1-11.6-6.87-17.68a1,1,0,0,1,.76-1.29.9.9,0,0,1,1,1.15c6.11,13.35,10.28,16.65,4.91,31.74a66.42,66.42,0,0,1-2,7.51c-.43,1.18-.77,3.17-2.33,3.11.53,4.22,4.8,7.45,8.14,9.84,8.37,4.83,18.32,4.13,22.25-5.12a1.06,1.06,0,0,1-.2-.43,51.09,51.09,0,0,1,2.79-21.6c1.73-2.93,4.95-2.31,8.12-1.7a15.8,15.8,0,0,0,4.86.45c27.79-2.79,32-31,38.86-51.76.81-2.34,1.59-4.68,2.61-6.95a1.35,1.35,0,0,1-.48-.47c-2-3-4.16-6.19-7.35-8.16-2.34-1.31-4.77-2.07-7.16-3.24-8.57-4-11.08-7.07-12.15-15.62-1.48,5.21-7.9,9-12.78,10.94-10.16,4-22,3.18-31.58,8.58-4.84,1.67-7.21,5.52-9.46,9.6-1.56,3.36-2.77,6.94-4.54,10.18-3.16,2.09-2.59-3.47-2.79-5.11a15.81,15.81,0,0,0-5.53-10.89,9.7,9.7,0,0,0-3.83-.91,3,3,0,0,0-2.54.91c-3.9,4.65-3.26,11.22-3.07,16.78.39,6.54,2.64,12.59,9.52,15.06,1.76.84,3.64,1.44,5.42,2.28a1.39,1.39,0,0,1,.83,1.64,1.46,1.46,0,0,1-1.6,1c-11.43-.86-17-9.87-17.24-20,0-1.5-.12-3.1-.14-4.75h0c-10.81-15-11.58-43.06.08-59.81.48-.34.95-.71,1.42-1.06s1-.8,1.53-1.21l1.43-1.09h0c.54-.37,1.07-.73,1.63-1.06l1.92-1.15c1.3-.76,2.56-1.57,3.81-2.39s2.43-1.59,3.67-2.37a26.83,26.83,0,0,1,3.26-1.76l4.83-2c1.55-.63,3.16-1.12,4.75-1.66a1.1,1.1,0,0,0,.73-1.4,1.18,1.18,0,0,0-1.48-.7,41.08,41.08,0,0,0-5.21,1.68.3.3,0,0,0,.08,0l-2.93,1.25c-.88.37-1.75.73-2.61,1.15a38.84,38.84,0,0,0-4.85,2.9c-1.2.79-2.38,1.61-3.58,2.4s-2.32,1.5-3.48,2.24c-.58.37-1.14.77-1.7,1.17s-1,.81-1.54,1.23-1,.83-1.51,1.25l-.85.67c-3.55-.91-7.32-1.76-10.5-3.35A38.91,38.91,0,0,1,268.29,40c-4.72-9.59-3.27-23,4.49-30.8C276,5.29,281.05,4,285.65,2.35A29.14,29.14,0,0,1,297.91,0c9.76.33,21.87,6,22.73,16.27a17.54,17.54,0,0,1,8.23-6.79,23.75,23.75,0,0,1,12.38.39c1.11,1.1-.28,2.84-.45,4.13-1.47,4.9-4.6,8.86-8.38,12.37a16,16,0,0,1-1.86,2.14c8.58-1.71,17.41-2.85,26-1.53,12.63,2.14,23.52,10.83,23.67,23.64a1.34,1.34,0,0,1,.51,1.39c16.82,5.1,23.75,30.25,18.25,44.87-.6,2-2.9,8.08-5.64,7.27-.33.76-.63,1.54-.95,2.31-6.72,18.23-8.47,42.84-28.37,52.83a32.77,32.77,0,0,1-16.36,5,11.69,11.69,0,0,1-3.78-.57,9.15,9.15,0,0,0-4.39-.44c-2.63,4.86-2.77,10.9-2.88,16.29a9.42,9.42,0,0,0,.13,2.65,2.15,2.15,0,0,1,.66.68l.33.15c11.86,2.32,23.86,1,35.59,3.75,8.13.87,16.8,2.9,20.8,10.4,6.34,9.63,9.63,20.86,15.69,30.55,1.56,2.82,7.39,8.53,4.39,11.36-1.12,1.1-2.27,2.21-3.48,3.3,5.9,7.24,10.66,15.2,16,22.79,1.2-1.89,2.85-3.84,3.27-4.93.78-2.19,24.61-38.17,24.69-28.41-2.79,6.39-8,11.51-12.45,16.91-3.24,3.92-5.59,8.58-8.56,12.57-1.48,2.1-2.86,3.87-4.18,5.95-.74,1.14-1.28,3.28-3.15,2.57a1.62,1.62,0,0,1-.79-.83,1.66,1.66,0,0,1-.45-.4c-6.2-7.81-10.42-16.54-16.31-24.49-6.27,5.5-13.56,10.65-21.27,13.07-1.67.24-4.46,1.78-5.32-.37a1.58,1.58,0,0,1,1.15-1.93c9.7-1.23,17-7.61,24.51-12.86A.69.69,0,0,1,408,242a1.07,1.07,0,0,1,.37-.45,1.18,1.18,0,0,1,.29-.16,30.62,30.62,0,0,0,3.62-3.85c-7.3-7.8-10.76-17.49-15.2-26.83-3.67-7.73-7.29-17.77-17.16-19.59-5.76-.87-11.59-1.66-17.42-2.24,3.09,10.11,3.78,20.68,5,31.11,3.07,19.88,3.34,40.19,5.76,60,.72,9.08,1.59,18.06,1.65,27.11a3.54,3.54,0,0,0,.85-1.28c1.79-2.5,1.14-5.74,1-8.4-1.17-20.67,2.89-41,1.23-61.62,0-1.57,2.62-1.62,2.61,0a253.58,253.58,0,0,1,.26,27.29,1.33,1.33,0,0,1,.72.66c6.43,12.67,17.17,22.51,27.71,32.09,5.56,5.58,13.19,13.27,21.89,9.17,9.3-7.24,12.9-19.23,18.49-29,4-7.83,8.31-15.61,12.23-23.47,2.64-5.27,4.75-11,8.12-15.84.95-1.29,3.33-.22,2.79,1.32-.33.94-.69,1.86-1.06,2.79-3.72,8.59-8,17-12.48,25.09-4.69,9.58-9.46,19.09-14.81,28.32-4.24,7.14-9.63,16.85-19.81,15.34-7.91-.6-13.09-7.06-18.32-12-4-4.28-8.69-7.93-12.55-12.35-1.6-1.74-9.83-11.48-13.09-17.46-.22,5.38-.48,10.75-.68,16.12-.76,6.87,1.68,14.38-.17,21a1.44,1.44,0,0,1,1.15.42c2.31,2.08,5.21,3.64,7,6.17,19.89,34.62,22.33,75.39,24.69,114,1.64,24.32,2.47,48.66,1.83,73-.6,23.67.91,47.34.87,71,.31,14.69-1.34,29.42-.45,44,.25,17.94,2,35.87.61,53.73-.22,1.63-.32,3.31-.69,4.92a1.36,1.36,0,0,1,.3,1.91,59.31,59.31,0,0,1-20.77,18.4,32.12,32.12,0,0,1-7,3.92C384.67,713,385,730.09,382.84,747a66,66,0,0,1-.77,6.78c4,4.92,11.12,6.61,16.63,9.63,11,5.73,22.87,9.48,34.45,13.86,7.18,2.42,14.88,3.58,21.51,7.09,15.33,9.08-1.9,20.42-12.38,23.87-19.14,6-39.79,5.74-59.76,6.18-11.31-.6-22.63-1-33.93-1.79-7.11-.52-16.13.38-20-6.57-4.38-8.2-.88-17.74,1-26.16,1.58-6.6,2.63-13.38,4.53-19.87a22,22,0,0,1,2.45-6,4.3,4.3,0,0,1,1-1.27c-1.13-7.1,0-14.58.27-21.7,1-8.46.72-16.76,1.71-25.13.25-3.58.36-7.16.36-10.76-6.4-2.06-11.47-5.1-12-9.72-2.62-30.09-.17-60.12,1.56-90.14,2.29-27.89,4.59-55.79,6.39-83.72-1.23,5-2.41,10.06-3.39,15.13-4.09,18.89-6,37.9-9.28,56.83-4.59,33.27-6.5,66.94-14.91,99.62-1.55,6.76-1.76,14.08-4.9,20.36-1.26,1.67-3.75,1.72-5.71,1.71a72.9,72.9,0,0,0-8.94-1.79,8.41,8.41,0,0,1-1.9.39c-2.48,9.93-4.69,19.91-7.59,29.75-1.49,5.49-2.83,11.14-3.79,16.72a21,21,0,0,1-1.73,6.55c.35,1.14-.06,3.13.32,4,1,11.94,11.82,19.51,20.48,26.94,6.86,5.46,14.27,10.46,21,16,4.51,3.38,9.84,6.44,13,11.12,9.2,14.86-23.29,16.7-33,16.77h-.23a214.33,214.33,0,0,1-36.55-3.77c-6.58-.76-13.27-1-19.55-3.2A35.65,35.65,0,0,1,228,820.41c-.88,1.56-1.91,3-2.74,4.62a.83.83,0,0,1-.34.3c-1.1,1.74-2.4,3.39-3.64,5-1.48,1.91-3.81,3.07-5.4,4.82-3,4.52-8.3,6-13.35,7.49a22.94,22.94,0,0,1-12.48,1.47c-3.83.25-7.66.71-11.52.67a100,100,0,0,1-18.25-2.71c1.3,7.93-3.92,15.41-9.84,20.51-4.05,2.11-9.06,2-13.58,2C131.67,863.42,125.94,862.24,122,858.61Zm-1.11-19.27c-5.23,16.5,12,24.07,26.74,20.51,6.05-4.26,10.32-10.65,9.5-18a1.75,1.75,0,0,0-.08-.51c-2.5-.57-5-1.15-7.52-1.66,2.7,6.31-3.9,12.33-11.73,11.88a7.47,7.47,0,0,1-8-7.8,11.68,11.68,0,0,1,3.25-6.83c-3.33-.48-6.65-1-10-1.53A17.27,17.27,0,0,0,120.86,839.34Zm13.62.77c-5.64,11.56,12.88,10,11.73.7a8.91,8.91,0,0,0-.85-1.92l-.45-.08c-2.11-.38-4.25-.73-6.38-1a1.42,1.42,0,0,1-.75.26,2.24,2.24,0,0,0-.57-.08A3.24,3.24,0,0,0,134.48,840.11ZM21.57,809.93c-14,22.3,17.48,38.82,30.38,15.84.55-1.31.79-2.74,1.38-4a.62.62,0,0,1,.14-.18q-4.17-1.14-8.27-2.49a5.49,5.49,0,0,1-.87,2.22c-1.92,3.84-6,6.86-10.69,6.11-2.38-.15-5-.56-6.68-2.37a8.49,8.49,0,0,1,1.51-10.84,4.53,4.53,0,0,1,1.45-.86c-2.71-1.1-5.51-2.27-8.26-3.56A.6.6,0,0,1,21.57,809.93Zm156.12,23.83a1.55,1.55,0,0,0,0,2.26,1.74,1.74,0,0,0,1.2.48,1.76,1.76,0,0,0,1-.32,17.29,17.29,0,0,0,4.21-3.83,16.58,16.58,0,0,0,1.46-2.18c.34-.61.63-1.22.91-1.85.63-1.4,1.25-2.8,1.93-4.19a17.89,17.89,0,0,0,1-1.89c.25-.6.48-1.21.71-1.81.48-1.34,1-2.65,1.46-4,.92-2.38,1.64-4.82,2.57-7.19.53-1.34,1.1-2.66,1.63-4s1-2.59,1.48-3.91.92-2.54,1.41-3.79,1-2.46,1.39-3.71h0a0,0,0,0,0,0,0l0-.1h0v0c.06-.2.11-.39.18-.57,0,0,0,0,0,.05s0-.13.06-.18h0c.1-.33.2-.66.31-1v0s0,0,0,0l0-.12v0c.39-1.22.68-2.47,1-3.71.39-1.51.78-3,1.17-4.55.65-2.48,1.38-5,2.12-7.44.84-2.77,1.68-5.54,2.39-8.35s1.43-5.78,2.12-8.68c0,0,0,.05,0,.07s0,0,0-.07a.64.64,0,0,1,0-.09c0-.07,0-.14,0-.21s0,0,0,0,0,0,0,0a.43.43,0,0,1,0,0h0a1,1,0,0,0,.05-.16v.05c.58-2.32,1.18-4.63,1.78-7,0,.08,0,.17-.06.24.06-.24.13-.48.19-.72l-.06.23c.82-3.13,1.52-6.29,2.3-9.42.36-1.44.69-2.88,1.1-4.32s.79-2.87,1.21-4.3c.84-2.8,1.66-5.61,2.42-8.45s1.49-5.68,2.29-8.51c.42-1.46.83-2.9,1.24-4.35s.88-3,1.24-4.49l-.06.22.09-.37h0v-.06q1-3.91,1.86-7.84c.51-2.2,1-4.41,1.63-6.6.28-.9.53-1.83.78-2.73,0-.12.07-.24.11-.35.16-.54.31-1.06.46-1.6a1.68,1.68,0,0,0-.07.24q2.17-7.32,4.34-14.62,1.19-4,2.31-8c.59-2.13,1.1-4.29,1.64-6.43.36-1.43.69-2.87,1.09-4.3.47-1.62.92-3.26,1.4-4.88.88-2.94,1.83-5.86,2.75-8.78.78-2.5,1.55-5,2.34-7.47.54-1.72,1.1-3.45,1.63-5.17.17-.53.3-1.07.45-1.61.37-1.25.72-2.51,1.07-3.77l-.06.2c0-.14.08-.28.13-.43a1.59,1.59,0,0,0-.07.2c.13-.45.21-.91.31-1.37l.54-2.5c.21-1,.39-2,.56-3,.46-2.62.93-5.23,1.4-7.85.88-4.87,1.85-9.72,2.74-14.59l0,.18c.27-1.28.47-2.58.71-3.87.19-1.1.37-2.21.54-3.32s.35-2.21.48-3.33c.1-.84.19-1.69.29-2.55,0-.38.09-.78.13-1.17.08-1.37.19-2.74.3-4.12.06-1,.15-1.9.19-2.86.12-3,.27-6.06.32-9.1a1.08,1.08,0,0,0-2.15,0c-.06,2.85-.22,5.68-.35,8.52-.11,2.08-.33,4.15-.52,6.24a1.1,1.1,0,0,0,0-.16c0,.25-.06.5-.08.75,0-.06,0-.11,0-.15,0,.16,0,.34-.05.5s0,.12,0,.18v0a.13.13,0,0,1,0,.06V580a.11.11,0,0,1,0,.06h0c-.12.82-.23,1.65-.35,2.47s-.18,1.55-.33,2.3c-.32,1.65-.62,3.33-1,5l0-.17c0,.19-.07.37-.11.57l0-.18c-.6,2.81-1.19,5.6-1.82,8.39s-1.27,5.5-1.88,8.25c-.58,2.6-1,5.21-1.5,7.82-.21,1.23-.4,2.47-.66,3.69-.32,1.44-.64,2.9-.94,4.35a.64.64,0,0,0,0,.07h0s0,0,0,.08c-.48,1.59-1,3.19-1.43,4.79-.39,1.37-.89,2.71-1.35,4.07-.89,2.64-1.8,5.29-2.68,7.94-1,3.07-2.06,6.15-3.09,9.24-.46,1.37-.84,2.77-1.26,4.16s-.74,2.59-1.08,3.9c-.73,2.8-1.4,5.62-2.18,8.4s-1.61,5.7-2.44,8.53c-1.74,6-3.48,12.07-5.14,18.13h0c-.37,1.3-.66,2.62-1,3.93-.23.91-.44,1.81-.64,2.72-.59,2.5-1.18,5-1.8,7.49v0h0c-.09.33-.17.66-.25,1l0,0a.25.25,0,0,0,0,.07.08.08,0,0,0,0,0v0l0,.13s0,0,0-.08c-.38,1.46-.83,2.94-1.25,4.39s-.92,3-1.31,4.52c-.82,3-1.68,6-2.49,9.06-.77,2.85-1.65,5.68-2.47,8.51-1.65,5.55-2.87,11.21-4.29,16.82a.53.53,0,0,0,0,.16s0,.05,0,.07,0,0,0-.07,0,.1,0,.15,0-.05,0-.08c-.89,3.38-1.76,6.77-2.57,10.19a.08.08,0,0,0,0,.07.08.08,0,0,1,0-.07l0,.08h0s0,0,0,0h0v0h0q-.42,1.77-.81,3.51a0,0,0,0,0,0,0v0l0,.12,0-.1c0,.06,0,.1,0,.15v0c0,.11-.05.23-.07.35h0c-.31,1.19-.56,2.39-.87,3.59s-.58,2.23-.89,3.35c-.59,2.17-1.2,4.34-1.78,6.52-1.15,4.19-2.14,8.4-3.32,12.56-.2.63-.41,1.26-.62,1.88s-.41,1.09-.62,1.64c-.41,1-.88,2.08-1.3,3.12-.93,2.28-1.76,4.59-2.65,6.88-.44,1.15-.93,2.29-1.37,3.45-.39,1-.74,2-1.09,3s-.76,2.23-1.16,3.34-.81,2.17-1.24,3.23h0l-.08.24s0,0,0,.06,0,0,0,0h0a.19.19,0,0,0,0,.07h0a1.57,1.57,0,0,1-.09.23c-.41,1-.82,2.06-1.21,3.1l.08-.21c-.06.16-.13.33-.2.49a1.32,1.32,0,0,1,.12-.2c-.34.58-.68,1.14-1,1.74s-.48,1-.7,1.52c-.58,1.32-1.12,2.64-1.78,3.92q-.43.74-.93,1.44c-.39.52-.81,1-1.24,1.49l0,0,0,.06,0-.06a.52.52,0,0,1-.1.11l.05,0C179.3,832.33,178.51,833.06,177.69,833.76Zm52-17.1c-.07.24-.14.49-.23.72,2.26,1.11,4.39,2.5,6.89,3,5.82,1.35,11.46,3.59,17.52,3.71,9.45.84,18.65,3.22,28.14,3.83,6.5,1.11,44.22,1.47,45.16-7.93-6.11,6.93-17.71,6.66-26.54,6.85-14.77,0-29.26-2.9-43.57-6-9-1.7-18.94-2-26.68-6.88C230.12,814.81,229.88,815.73,229.66,816.66Zm-200.47,5.2a2.49,2.49,0,0,0,2.2,2.09c3.82.89,7.8.69,9.86-2.91a10.61,10.61,0,0,0,.74-3q-4.38-1.53-8.68-3.31l-1-.39a.89.89,0,0,1-1.08.4C29.75,816.68,28.43,819.42,29.19,821.86Zm209.18-33.78a197.57,197.57,0,0,0-7.71,24.58c2.12.47,4.16,2,6.29,2.47,20.6,3,41,8.83,61.95,8.61,9.58-.14,19.39-.42,27.54-5.47a1.14,1.14,0,0,1,.41-.24,10,10,0,0,0-2.29-3.29c-12.26-10.48-26.26-19-38-29.91-8.28-7-13.87-13.62-14.7-23.66a14.21,14.21,0,0,1-2.69,2.89c-3.84,3.17-8.39,5.33-13.47,5a11.86,11.86,0,0,1-8.83-4.78l-.28-.28Q242.77,776.15,238.37,788.08Zm93.81,16.61c2.18,3.65,6.66,3.7,10.59,4,9.82.86,19.7,1,29.55,1.6,13,.91,26,.37,39-.49,15.66-.77,33.62-2.89,45.36-13.58a4.89,4.89,0,0,0,1.26-2.76,6.11,6.11,0,0,0-.6-2.56c-7.65,10.39-22.87,11.44-35.08,13.51-12,1.63-24.18,3-36.29,3-11.37-.52-22.66-1-33.95-2.56-7.08-.72-14.63.8-21.06-2.46A8.52,8.52,0,0,0,332.18,804.69Zm2.46-29.14c-1.4,6.22-3.21,12.73-4,19a19.26,19.26,0,0,0-.32,5.14,3.18,3.18,0,0,1,.64.32c6.31,2.92,13.3,1.93,20.06,2.27,24.34,3,49,3.72,73.12-1.08,9.65-1.07,19.22-3.34,27.17-8.63.82-.5,3.13-2.68,4.78-3.43a3.57,3.57,0,0,0-.53-.5c-8.51-5-19-5.54-27.89-9.7a249.68,249.68,0,0,1-35.51-15,44.55,44.55,0,0,1-10.74-7c-1,1.65-2.75,2.68-3.75,4.33-4.19,5.72-10,11.84-17.95,11.48-9.12-.67-18.94-6.32-21.06-15.06C336.77,763.5,336.39,769.76,334.64,775.55Zm6.48-38.76c-.23,1.7.67,15.05-1.26,17.87a.8.8,0,0,1,.2.52c2.14,2.85,3.65,6.05,6.68,8.11,4.41,3.51,10.72,6.14,16.48,4.88a19.9,19.9,0,0,0,3-.93c3.76-3.13,7.67-6.34,10.65-10.14.59-.62,1.09-1.39,1.69-2-.54-1.14-.16-3-.17-4.12.47-8.11,1.52-16.17,2.6-24.23a5,5,0,0,1-.49.31c-5.41,2.22-11.68,1.67-17.45,1.63-6.94-.42-14.27-.23-20.7-3a5.69,5.69,0,0,1-.77-.32C341.5,729.16,341.3,733,341.12,736.79Zm-93.7,24.5a1.17,1.17,0,0,1,.64.78c2.86,2.62,7,4.33,11,3.39,3.59-.42,6.69-2.69,9.23-5,.73-.72,1.14-1.68,1.86-2.36a10.44,10.44,0,0,1,.27-2.09c1.49-8.08,3.24-16.08,5.39-24a8.1,8.1,0,0,1-3.36,0c-3.8-.53-7.56-1.05-11.07-2.65-1.65-.68-2.74-2.2-4.22-3.12Q252.76,743.87,247.42,761.29Zm10.05-36.5a13.53,13.53,0,0,1,4,2.12c3.85,1.58,7.8,3,12,3a7.53,7.53,0,0,1,3-.27h0q.84-3,1.79-6.07c1.85-6.53,3.47-13.1,5.14-19.66l-1.58-.1c-4.91-1.5-10.63-2-15.4-3.92a.51.51,0,0,1-.17,0,1.53,1.53,0,0,1-.46-.23h0a15.48,15.48,0,0,1-2.25-1.17C261.62,707.23,259.63,716,257.47,724.79Zm84.2-15.11c.19,4.12.18,8.24.07,12.35a1.18,1.18,0,0,1,.33,1c5.73,3.3,13,2.54,19.41,3a124.69,124.69,0,0,0,15.46-.33c1.49-.2,2.84-1.23,4.39-1,.8-5.88,1.61-11.77,2.2-17.67.4-3.32,1-6.64,1.62-9.92a57.69,57.69,0,0,1-19.33,2.53c-5.12-.56-15.38-1.42-23.94-3.84C341.89,700.39,341.78,705,341.67,709.68ZM264,694.2v0a.65.65,0,0,0,.52.77l.14,0a.67.67,0,0,0,.67-.52,0,0,0,0,0,0,0h0l.08-.08,0,0h0a3.15,3.15,0,0,0,.69-.86,5.39,5.39,0,0,0,.36-.86,21.78,21.78,0,0,0,.71-2.11,28.1,28.1,0,0,0,.52-3.76c.18-1.44.39-2.88.69-4.31a1,1,0,0,0,0,.14c.43-1.94.71-3.9,1.16-5.83a13,13,0,0,1,.43-1.38l-.06.12c.26-.62.52-1.25.72-1.89s.31-1.12.43-1.69c.28-1.4.51-2.8.78-4.2.47-2.46,1-4.92,1.61-7.36.33-1.3.64-2.6,1-3.89s.74-2.55,1.07-3.84.64-2.69.94-4.06.58-2.65.86-4v.05c.29-1.44.51-2.88.74-4.32s.51-2.78.82-4.15a.64.64,0,0,1,0,.07c.31-1.31.62-2.63.95-3.95.29-1.15.65-2.28,1-3.42s.77-2.43,1.11-3.65.69-2.55,1-3.83c1.19-4.89,2-9.84,3.17-14.75.52-2.05,1-4.11,1.53-6.18.44-1.91.7-3.86,1-5.8.45-2.67.86-5.35,1.25-8.05.18-1.35.44-2.68.58-4s.17-2.5.22-3.75.13-2.74.14-4.12a10.48,10.48,0,0,0,0-1.48c-.07-.42-.13-.85-.22-1.28-.11-.61-.22-1.22-.34-1.84s-.32-1.46-.5-2.19a15,15,0,0,0-.61-1.78c-.45-1.12-.92-2.24-1.47-3.31a1.62,1.62,0,0,1,.1.18c-.25-.51-.5-1-.78-1.51-.14-.23-.28-.45-.43-.66a3.85,3.85,0,0,0-.6-.78c-.31-.3-.63-.59-1-.88a10.78,10.78,0,0,0-1-.82,16.78,16.78,0,0,0-1.62-1c-.93-.52-1.84-1.06-2.78-1.56s-1.87-.94-2.81-1.41-2.21-1-3.33-1.41-2.21-.8-3.34-1.12c-1.28-.35-2.57-.66-3.86-1s-2.7-.7-4.05-1.08c-.65-.18-1.3-.37-2-.54l-2.12-.52c-1.4-.33-2.79-.61-4.2-.85s-2.68-.42-4-.59l-2.13-.27c-.66-.1-1.31-.23-2-.36h-.05c-.79-.18-1.57-.35-2.34-.6s-1.49-.61-2.22-.94l-2-.89-4.53-2a.7.7,0,0,0-.9.34.65.65,0,0,0,.36.86c2.13.95,4.26,1.92,6.39,2.89a19.67,19.67,0,0,0,3.57,1.34c1,.22,1.93.43,2.91.62h-.09l1.39.27h.09c1.92.41,3.82.83,5.74,1.29s3.92,1.06,5.86,1.65,3.89,1.11,5.84,1.64c1.68.45,3.38.87,5,1.41h0l.05,0,.08,0h0c.69.25,1.37.54,2,.85s1.64.7,2.43,1.08q1.55.8,3,1.71c1.07.67,2.18,1.29,3.25,2l-.06,0c.26.17.49.34.73.52.39.34.74.68,1.1,1.06a1.49,1.49,0,0,0-.12-.14,3.68,3.68,0,0,1,.32.37,6.61,6.61,0,0,1,.35.63c.42.9.77,1.81,1.12,2.73s.75,1.92,1.13,2.88a1.87,1.87,0,0,0-.07-.22,45.86,45.86,0,0,1,1.28,5.36,5.62,5.62,0,0,1,.06.56c0,1.41-.13,2.82-.2,4.23s-.15,2.63-.27,4c-.11.85-.26,1.71-.37,2.56-.13,1-.27,2-.4,3-.35,2.67-.73,5.33-1.13,8-.21,1.34-.41,2.69-.69,4s-.54,2.62-.83,3.93c-.59,2.69-1.22,5.37-1.71,8.08-.27,1.4-.52,2.81-.76,4.22s-.55,2.62-.82,3.94l0-.17c-.54,2.19-1.07,4.38-1.74,6.53-.33,1-.68,2.1-1,3.17-.16.59-.36,1.18-.5,1.78s-.28,1.18-.42,1.77c-.5,2.17-.94,4.37-1.33,6.56-.19,1.05-.35,2.11-.54,3.15s-.39,2.21-.61,3.31-.52,2.45-.78,3.68-.55,2.28-.83,3.41-.65,2.17-.94,3.27-.57,2.27-.83,3.42c-.5,2.26-.85,4.54-1.28,6.81-.2,1.1-.41,2.21-.61,3.31s-.34,2.2-.6,3.27-.76,2.28-1.06,3.43-.56,2.28-.77,3.44-.44,2.29-.67,3.44-.36,2.09-.55,3.15v0c-.12.72-.27,1.44-.4,2.16-.08.46-.14.92-.22,1.38v0a9,9,0,0,1-.27,1.31v0s0,0,0,0v0a.13.13,0,0,0,0,.05.24.24,0,0,1,0,.08.29.29,0,0,0,0-.09c-.1.37-.24.71-.37,1.08a2.41,2.41,0,0,0-.17.75,2.21,2.21,0,0,0,.12.71s0,0,0-.05a.29.29,0,0,1,0,.09v0s0,0,0,0h0S264,694.18,264,694.2ZM241.42,558.81c1.3.36,2.63.67,3.9,1.09.43.14.85.33,1.26.46s1,.27,1.44.44a.88.88,0,0,0,.27,0,1,1,0,0,0,.93-.58.94.94,0,0,0-.4-1.21,15.73,15.73,0,0,0-2.23-1.16c-1.05-.44-2.17-.79-3.26-1.15h0l-.19-.06h0l-.06,0h0c-2.1-.72-4.22-1.43-6.39-2s-4.56-1-6.85-1.46c-1.12-.2-2.22-.43-3.31-.73s-2.19-.61-3.29-.91c-2.26-.63-4.55-1.18-6.83-1.73h0l-.06,0h0l-.08,0h0c-2.13-.58-4.21-1.26-6.33-1.88h0c-1.36-.38-2.74-.74-4.12-1.09s-2.75-.72-4.11-1.11-2.91-.85-4.37-1.26-2.68-.68-4.05-1h0c-1-.21-2.09-.38-3.12-.58l-3.89-.76c-2.1-.44-4.18-.92-6.28-1.33l-3.9-.77c-1-.19-1.94-.39-2.93-.54q-3.42-.51-6.88-.93h0c-1.86-.25-3.67-.67-5.5-1.09-.92-.21-1.83-.44-2.75-.66s-1.84-.38-2.75-.57c-.39-.08-.79-.13-1.18-.18-.6-.1-1.19-.2-1.79-.28l-2.76-.36c-1.86-.24-3.71-.52-5.57-.82h0l-.11,0h0c-2.19-.38-4.4-.78-6.6-1.19-2.43-.44-4.86-.91-7.32-1.17-1.2-.14-2.41-.28-3.62-.37l-3.5-.28c-1.45-.13-2.92-.24-4.37-.36-.87-.06-1.74-.11-2.61-.12a20,20,0,0,0-2.19.06c-.72.07-1.44.15-2.15.26a1,1,0,0,0-.84,1.1,1,1,0,0,0,1.15.79c.72-.12,1.43-.23,2.15-.31a24.36,24.36,0,0,1,3,0h-.12c1.8.08,3.6.27,5.39.43l3.91.34c1.43.12,2.85.29,4.27.45,1.19.14,2.35.35,3.52.53h0c5.14.93,10.27,2,15.45,2.76l-.14,0c1,.16,1.91.29,2.87.44l-.14,0,1.39.27c.48.09,1,.15,1.42.26l2.64.65c1,.27,2,.57,3,.83h0c.22.07.44.12.67.18h0l1.77.47c.43.11.87.19,1.31.29,1,.2,2,.4,3,.57,1.94.33,3.88.62,5.79,1,2.09.46,4.18.89,6.26,1.32s4,.87,6,1.32l-.2,0c2.58.59,5.2,1,7.8,1.55l-.21-.05c1.8.38,3.57.82,5.34,1.31s3.31.94,5,1.32c1,.24,2,.44,3,.63.77.16,1.55.3,2.31.5,1.75.42,3.49.87,5.24,1.33l-.16,0,2.12.53h0l2,.47h0l0,0c1.63.4,3.23.8,4.83,1.25,1.45.41,2.88.85,4.33,1.23,3.17.8,6.4,1.33,9.55,2.17l-.17,0C237.75,557.68,239.57,558.28,241.42,558.81Zm-15-16.21a6.3,6.3,0,0,1,.54-1.53c6.25-21.39,11.51-43.13,15.95-64.94,3-12.22,6.84-24.28,8.62-36.7,1.1-6.7,1.06-13.39-2.16-18.5l0,.07a4.59,4.59,0,0,0-.32-.57A6.65,6.65,0,0,0,248,419a1.73,1.73,0,0,0-.21-.17,18.12,18.12,0,0,0-7.16-4.69,2.23,2.23,0,0,1-.77.1,55.61,55.61,0,0,0-2.53,8.11,2.29,2.29,0,0,0,0,.25s0,0,0,.06c2.77.82,4.49,3.42,5.42,7.25,0,.38,0,.8,0,1.2s.08.55.11.84c.07.53.16,1.07.2,1.59,0,.26,0,.52,0,.79a7.86,7.86,0,0,1,0,.85l0,0s0,.05,0,.07v0a5.69,5.69,0,0,0-.06.92,2,2,0,0,0,.12.61c0,.78-.11,1.57-.19,2.35s-.16,1.84-.25,2.78c-.09.56-.19,1.11-.28,1.67-.07.41-.14.82-.22,1.22-.15.73-.28,1.47-.4,2.21,0,.26-.07.51-.11.78l-.22.65a11.66,11.66,0,0,0-.62,1.65c-.12.51-.21,1-.33,1.53a21.76,21.76,0,0,1-.91,2.8s0,.05,0,.08c-.19.46-.39.93-.61,1.39a9,9,0,0,0-.78,1.8,10.61,10.61,0,0,0-.33,1.87,3.81,3.81,0,0,0-.15.44s0-.09,0-.13a36.06,36.06,0,0,0-1,3.69c-.1.43-.21.87-.3,1.3s-.24,1.14-.38,1.71-.29,1.45-.49,2.15c-.13.37-.29.72-.41,1.09-.19.59-.42,1.16-.63,1.75a13.12,13.12,0,0,0-.43,1.48c-.09.43-.17.87-.25,1.31-.07.28-.15.54-.24.82-.28.76-.58,1.51-.81,2.28-.32,1-.62,2.09-.86,3.17,0-.06,0-.11,0-.16-.22.94-.48,1.86-.71,2.81s-.37,2-.6,2.95q-.35,1.21-.78,2.4c-.23.65-.51,1.29-.76,1.93s-.39,1.21-.56,1.81-.41,1.39-.59,2.09-.36,1.29-.48,1.94c0,0,0,0,0,.06v0s0,.05,0,.07l-.08.26c0,.12-.08.24-.11.36s-.09.34-.15.52,0,.12,0,.18-.08.28-.11.43-.09.32-.13.47a3.8,3.8,0,0,1-.14.51l0,0v0l0,.05a.06.06,0,0,1,0,0h0a1.3,1.3,0,0,1-.1.25,2.52,2.52,0,0,1-.15.34.58.58,0,0,0-.06.17c-.06.18-.14.36-.19.53h0a13.36,13.36,0,0,0-.44,1.87c-.12.57-.33,1.13-.45,1.7s-.23,1.23-.39,1.85a3.26,3.26,0,0,1-.15.44c0,.15-.09.3-.14.45a5.73,5.73,0,0,0-.25.9l-.21,1.13a0,0,0,0,1,0,0v0s0,0,0,0v.09h0v0c-.06.29-.14.6-.19.9l-.06.42c0,.12,0,.25-.06.38a7.38,7.38,0,0,1-.19.78c-.13.31-.28.61-.39.91a11.19,11.19,0,0,0-.4,1.45c-.14.55-.32,1.08-.48,1.63-.12.38-.23.78-.35,1.17a12.31,12.31,0,0,0-.37,1.48c0,.22-.07.45-.09.68s-.08.5-.11.75v0c0,.14-.07.27-.11.4s-.16.48-.23.73-.15.48-.21.73-.09.4-.13.61-.08.41-.13.62v0c-.05.16-.09.32-.15.46h0l0,0v0c-.16.44-.33.87-.46,1.31s-.29,1-.45,1.55-.19.81-.28,1.21-.14.53-.19.8a2.65,2.65,0,0,0-.07.63h0v.36a.28.28,0,0,0,0,.09c-.09.31-.19.6-.28.92l0,.06,0,0,0,.1,0,.09a0,0,0,0,0,0,0c-.12.22-.25.45-.35.68s-.12.38-.19.56a1.46,1.46,0,0,1-.07.19,4.91,4.91,0,0,0-.25.44,4.12,4.12,0,0,0-.36,1c-.06.21-.11.42-.16.62a5,5,0,0,0-.08.77.16.16,0,0,1,0,0,2.94,2.94,0,0,0-.29,1.1c0,.08,0,.16,0,.23-.08.28-.21.56-.31.85s-.12.54-.19.81a2,2,0,0,0-.06.76c0,.12.05.23.08.35a1.34,1.34,0,0,0,.06.4,1.63,1.63,0,0,0,.21.53h0a2.07,2.07,0,0,0,.17.24,1.81,1.81,0,0,0,.73.55h0a2.21,2.21,0,0,0,.75.17l.1,0a2.61,2.61,0,0,0,1.14.1,6,6,0,0,0,1.11.12l.47,0C222.85,541.57,224.63,542.07,226.43,542.6Zm-30.16-89.66c-5.5,11.89-10.44,24.05-15.17,36.22-4.5,12.7-7.75,25.86-13.4,38.17-.29.51-.55,1.17-.88,1.76,5.7,1.15,11.38,2.38,17.08,3.52,10.07,1.91,20.11,4.07,30,6.6,0-.12,0-.24.07-.36.26-1.69.51-3.29.84-4.94,1.72-7.23,3.49-14.53,5.76-21.66,5-22.68,12.83-44.53,18.79-67l.12-.43a98.58,98.58,0,0,0,.19-14.48,24.84,24.84,0,0,0-2.3-5c.3,2.31,1,4.59,1,6.92-.46,4.28-6,4.63-9.5,3.69-7.73-1.35-13.71-5.16-16.2-12.07l-.11,0C204.53,431.92,200.53,442.81,196.27,452.94Zm13.87-39.39c-10,7.62-15.48,19-21.31,29.55-9.47,18.52-15.72,38.14-22.79,57.46-2.7,8.57-6.22,16.91-9.27,25.31a12.93,12.93,0,0,1-.64,1.19c2.52.42,5,.9,7.53,1.39a5.21,5.21,0,0,1,.8-1.47c4.21-9.4,6.81-19.29,10.22-29,6.9-18.24,14.89-36.12,22.23-54.21,1.19-3.31,10.16-20.44,15.21-21.67,0-.07,0-.14-.05-.21a22.15,22.15,0,0,1-1.77-8.48Zm30.73-1.82.08,0a20.62,20.62,0,0,1,8.25,4,.67.67,0,0,1,.06-.12,1.33,1.33,0,0,1,.2-.57c-2.44-3-3.22-7-5-10.36A65.16,65.16,0,0,0,240.87,411.73Zm30.19-138.66c0,2.23-2,3.08-4.08,3.43-2.74,16.84-5,33.76-7,50.72-2,18-5.83,35.86-7.52,53.93-.16,4.36,2,8,3.83,11.81a5.93,5.93,0,0,0,.5-1.62c3-9.86,5.86-19.72,8.84-29.57,2.7-6.06,5.65-11.88,7.87-18.11,3.36-10.26,6.21-20.87,12-30.28a1.37,1.37,0,0,1,.81-.65c-.56-3.49-.34-7.14-1.12-10.58-1.83-8-7-15.13-9.49-22.95a96.78,96.78,0,0,1-3.94-14.51C271.31,267.48,271.26,270.27,271.06,273.07Zm21.4-90.64c.2.44.38.88.56,1.33,3.29,5.71,4.59,12,6,18.34,8.4,27.2,12,55.33,16,83.36,1.92,10.85,3,21.84,4.66,32.73l.06.52c6.8,1,13.61,2.81,20.45,1,7.14-.59,13.67-2.7,20.18-5.31-.65-22.54-.63-45.12-1.71-67.64q-3.08-29.38-7.3-58.61a43.6,43.6,0,0,1-14.27-3,0,0,0,0,1,0,0c-1.12,7.12-9.36,11.51-16.57,10.42A22.9,22.9,0,0,1,302.7,184a10.58,10.58,0,0,1-1-3.83C298.94,181.73,295.71,182.15,292.46,182.43Zm-20.65,66.16c2,12.66,4.78,25.42,10.81,36.92,2.43,4.75,5.25,9.58,6.4,14.76,1,4.32.89,8.74,1.2,13.12,3.29,1.34,7.06,3.31,10.6,1.79a9.4,9.4,0,0,1,2.34-.8,2.69,2.69,0,0,0,.16-.45,1.48,1.48,0,0,1-.21-.54c-1.2-17.14-.43-34.49-3.72-51.48a665.08,665.08,0,0,0-20.49-77,1.06,1.06,0,0,1-.66-.95c-11.39,1.5-22.8,4.27-30.5,12.92-13.19,18.15-12.61,42.22-25.66,60.59.56,2.9,4,4.2,6.18,5.94,11.17,8.75,26.08,11,40.12,9.75a63.81,63.81,0,0,1,1.87-16.62c-.42-2.53-.84-5.07-1.29-7.6a1.35,1.35,0,0,1,1.46-1.5A1.31,1.31,0,0,1,271.81,248.59ZM298,11.55c-1.17.11-2.62.31-3.34,1.31a3.73,3.73,0,0,0-.41,2.88,9.07,9.07,0,0,0,.76,2,22.73,22.73,0,0,0,2.18,3.45q.57.77,1.2,1.5c.67.78,1.32,1.58,2.06,2.3a41.37,41.37,0,0,0,4.33,3.44,36.28,36.28,0,0,0,4,2.52A34.81,34.81,0,0,0,313.64,33a1.81,1.81,0,0,0,.51.08,1.9,1.9,0,0,0,1.77-1.27,1.68,1.68,0,0,0-.5-1.75s0,0,0,0a1.9,1.9,0,0,1-.09-.29,0,0,0,0,0,0,0c-.13-.6-.22-1.2-.4-1.79a26.49,26.49,0,0,0-1-2.55h0c-.36-1-.65-1.92-1.07-2.84a20.76,20.76,0,0,0-3-5.08,24.25,24.25,0,0,0-2.65-2.51,14,14,0,0,0-4.07-2.5,12.69,12.69,0,0,0-4.41-.88C298.46,11.53,298.2,11.53,298,11.55Zm22,16.5a3.85,3.85,0,0,0,.22,1.14,1,1,0,0,0,.06.23,5.68,5.68,0,0,1,2.83-.39,8.43,8.43,0,0,0,1.88-.1c2-.25,3.49-1.8,4.7-3.15,4.12-4.29,8.17-8.65,10.17-14.11-.55,0-1.07,0-1.59,0C325.16,11.65,322.47,17.28,320,28.05Z"/></g></g></g></g></svg>